<?xml version="1.0" standalone="no"?><!DOCTYPE svg PUBLIC "-//W3C//DTD SVG 20010904//EN" "http://www.w3.org/TR/2001/REC-SVG-20010904/DTD/svg10.dtd"><svg xmlns="http://www.w3.org/2000/svg" version="1.0" width="600.000000pt" height="480.000000pt" viewBox="0 0 600.000000 480.000000" preserveAspectRatio="xMidYMid meet">

<g transform="translate(0.000000,480.000000) scale(0.100000,-0.100000)" fill="#d62828" stroke="none">
<path d="M1194 2568 c-63 -43 -89 -94 -89 -174 0 -50 5 -69 28 -103 l28 -42 -38 -42 c-21 -23 -48 -58 -60 -77 -31 -50 -63 -153 -63 -200 l0 -40 59 0 58 0 5 48 c10 100 96 220 191 266 155 76 322 46 432 -76 53 -59 84 -122 93 -185 l7 -48 61 -3 61 -3 -8 58 c-15 111 -60 201 -138 277 l-40 39 22 29 c31 42 36 142 9 194 -23 45 -53 75 -99 98 -27 13 -69 16 -251 16 l-220 0 -48 -32z m490 -107 c30 -28 35 -83 11 -115 -15 -19 -16 -19 -72 -1 -82 26 -218 24 -298 -4 l-60 -22 -22 26 c-26 29 -29 58 -10 95 21 42 65 50 254 47 166 -2 172 -3 197 -26z"/>
<path d="M1392 1976 c-35 -33 -37 -37 -37 -100 0 -62 -2 -67 -38 -104 l-37 -38 25 -24 25 -24 43 42 c40 40 45 41 77 32 24 -7 45 -7 68 1 32 11 36 9 73 -27 l39 -38 26 26 26 26 -38 35 c-37 33 -39 38 -39 97 0 58 -2 63 -37 96 -33 29 -45 34 -88 34 -43 0 -55 -5 -88 -34z"/>
<path d="M862 1721 c9 -15 5 -55 -20 -199 -18 -98 -32 -187 -32 -196 0 -14 9 -17 62 -14 l62 3 16 90 15 90 93 3 c70 2 92 0 92 -10 0 -7 -7 -48 -15 -91 -8 -43 -15 -81 -15 -83 0 -2 29 -4 63 -4 l64 0 32 181 32 182 -32 33 -33 34 -198 0 c-192 0 -198 -1 -186 -19z m318 -63 c0 -7 -3 -30 -6 -50 l-7 -38 -94 0 -95 0 7 43 c4 23 9 45 12 50 2 4 44 7 94 7 65 0 89 -3 89 -12z"/>
<path d="M4084 1705 c11 -35 11 -35 68 -35 47 0 58 -3 58 -16 0 -15 -44 -274 -55 -321 -5 -22 -3 -23 59 -23 58 0 64 2 69 23 3 12 18 93 33 180 l27 157 59 0 c51 0 58 2 58 19 0 11 3 26 6 35 5 14 -16 16 -193 16 l-200 0 11 -35z"/>
<path d="M1355 1668 c-2 -7 -16 -78 -30 -158 -14 -80 -28 -158 -31 -173 l-6 -28 58 3 58 3 14 78 14 77 80 0 81 0 -6 -29 c-3 -15 -9 -51 -13 -80 l-7 -51 55 0 55 0 27 152 27 151 -33 34 -32 33 -153 0 c-114 0 -155 -3 -158 -12z m262 -65 c-3 -10 -8 -30 -11 -45 -6 -28 -7 -28 -86 -28 l-79 0 5 33 c10 58 8 57 94 57 73 0 81 -2 77 -17z"/>
<path d="M1785 1668 c-2 -7 -16 -78 -30 -158 -14 -80 -28 -158 -31 -173 l-6 -28 59 3 58 3 14 78 13 77 80 0 81 0 -6 -29 c-3 -15 -9 -51 -13 -80 l-7 -51 56 0 55 0 12 73 c7 39 15 89 20 110 7 35 7 37 -17 37 -21 0 -24 4 -20 23 3 12 9 46 13 75 l7 52 -56 0 -56 0 -12 -75 -12 -75 -59 0 c-52 0 -59 2 -54 18 3 9 8 35 11 57 4 22 9 48 12 58 4 15 -3 17 -52 17 -36 0 -57 -4 -60 -12z"/>
<path d="M2215 1668 c-2 -7 -16 -80 -30 -163 -15 -82 -29 -160 -32 -173 -5 -22 -4 -23 53 -20 l59 3 14 78 13 77 80 0 81 0 -6 -29 c-3 -15 -9 -51 -13 -80 l-7 -51 57 0 c31 0 56 3 56 8 0 4 13 81 30 172 16 91 30 171 30 178 0 8 -17 12 -54 12 l-55 0 -10 -52 c-5 -29 -11 -62 -13 -73 -3 -18 -12 -20 -86 -23 -76 -3 -83 -1 -78 15 3 10 8 36 11 58 4 22 9 48 12 58 4 15 -3 17 -52 17 -35 0 -57 -5 -60 -12z"/>
<path d="M2645 1668 c-2 -7 -16 -80 -30 -163 -15 -82 -29 -160 -32 -173 -5 -22 -4 -23 53 -20 l59 3 14 78 13 77 80 0 81 0 -6 -29 c-3 -15 -9 -51 -13 -80 l-7 -51 57 0 c31 0 56 3 56 7 0 3 12 71 26 151 l25 145 -32 33 -33 34 -153 0 c-114 0 -155 -3 -158 -12z m259 -80 c-10 -59 -8 -58 -93 -58 -86 0 -81 -5 -66 63 5 27 6 27 85 27 l80 0 -6 -32z"/>
<path d="M3075 1668 c-2 -7 -16 -80 -30 -163 -15 -82 -29 -160 -32 -172 l-5 -23 164 0 164 0 37 38 c35 36 39 47 58 152 l20 113 -32 33 -33 34 -153 0 c-114 0 -155 -3 -158 -12z m260 -70 c-2 -13 -12 -66 -21 -118 -8 -52 -18 -98 -20 -102 -3 -4 -39 -8 -80 -8 -86 0 -82 -8 -59 121 26 144 14 129 105 129 78 0 80 -1 75 -22z"/>
<path d="M3505 1668 c-2 -7 -16 -80 -30 -163 -14 -82 -28 -160 -30 -173 -5 -22 -4 -23 52 -20 l58 3 14 78 13 77 80 0 81 0 -7 -37 c-3 -21 -9 -57 -13 -80 l-6 -43 57 0 c31 0 56 3 56 8 0 4 12 72 26 150 l26 144 -33 34 -33 34 -153 0 c-114 0 -155 -3 -158 -12z m259 -80 c-10 -59 -8 -58 -93 -58 -86 0 -81 -5 -66 63 5 27 6 27 85 27 l80 0 -6 -32z"/>
<path d="M4466 1653 c-14 -65 -56 -309 -56 -325 0 -15 9 -18 55 -18 30 0 55 3 55 8 0 4 13 81 30 172 16 91 30 171 30 178 0 8 -17 12 -54 12 -51 0 -55 -2 -60 -27z"/>
<path d="M4625 1668 c-2 -7 -16 -80 -30 -163 -15 -82 -29 -160 -32 -173 -5 -22 -4 -23 53 -20 l59 3 19 113 c11 62 22 107 26 100 4 -7 17 -59 30 -115 l24 -103 32 0 c31 0 36 6 100 115 37 63 69 113 70 112 2 -2 -11 -84 -31 -195 l-6 -33 57 3 58 3 28 160 c15 88 30 170 33 183 5 21 3 22 -60 22 l-65 0 -82 -139 c-46 -78 -86 -135 -89 -128 -3 7 -18 66 -33 131 -15 66 -29 123 -32 128 -9 13 -124 10 -129 -4z"/>
<path d="M5160 1676 c0 -2 -13 -78 -30 -169 -16 -92 -30 -173 -30 -182 0 -23 295 -23 304 1 16 41 10 44 -89 44 l-96 0 6 38 c4 20 8 42 10 49 3 8 33 13 87 15 82 3 83 3 86 31 l3 27 -82 0 -81 0 6 31 c3 17 6 38 6 45 0 11 22 14 100 14 l100 0 0 30 0 30 -150 0 c-82 0 -150 -2 -150 -4z"/>
<path d="M5506 1653 c-14 -65 -56 -309 -56 -325 0 -15 9 -18 54 -18 l54 0 13 78 c14 75 15 77 44 80 28 2 32 -2 67 -78 l36 -80 56 0 c31 0 56 2 56 5 0 3 -16 37 -35 75 -19 38 -35 72 -35 75 0 3 17 5 38 5 l38 0 12 73 11 72 -31 33 -32 32 -142 0 -142 0 -6 -27z m234 -62 c0 -56 -7 -61 -76 -61 -69 0 -69 0 -58 59 6 31 7 31 70 31 l64 0 0 -29z"/>
</g>
</svg>